# xmcd CD database file
#
# Track frame offsets:
#	150
#	29920
#	64755
#	90540
#	142130
#	175157
#	199960
#	230777
#	262497
#
# Disc length: 3847 seconds
#
# Revision: 0
# Processed by: cddbd v1.5.1PL0 Copyright (c) Steve Scherf et al.
# Submitted via: CDex 1.60beta1
#
DISCID=930f0509
DTITLE=Phil Woods - The Rights of Swing
DYEAR=1900
DGENRE=Jazz
TTITLE0=Prelude
TTITLE1=Ballad
TTITLE2=Waltz
TTITLE3=Scherzo
TTITLE4=Presto
TTITLE5=Please Say Yes
TTITLE6=Alison
TTITLE7=Tipsy
TTITLE8=Hard Sock Dance
EXTD=
EXTT0=
EXTT1=
EXTT2=
EXTT3=
EXTT4=
EXTT5=
EXTT6=
EXTT7=
EXTT8=
PLAYORDER=
